# xmcd CD database file
#
# Track frame offsets:
#	182
#	22235
#	37437
#	52350
#	67377
#	89042
#	108137
#	123477
#	139665
#	153552
#	172882
#	188452
#	206277
#	221885
#	239902
#	258172
#	274212
#	285905
#	299305
#
# Disc length: 4291 seconds
#
# Revision: 16
# Processed by: cddbd v1.5.2PL0 Copyright (c) Steve Scherf et al.
# Submitted via: CDex 1.51
#
DISCID=3710c113
DTITLE=John Lennon - The John Lennon Collection
DYEAR=1989
DGENRE=Rock
TTITLE0=Give Peace A Chance
TTITLE1=Instant Karma!
TTITLE2=Power To The People
TTITLE3=Whatever Gets You Thru The Night
TTITLE4=#9 Dream
TTITLE5=Mind Games
TTITLE6=Love
TTITLE7=Happy Xmas (War Is Over)
TTITLE8=Imagine
TTITLE9=Jealous Guy
TTITLE10=Stand By Me
TTITLE11=(Just Like) Starting Over
TTITLE12=Woman
TTITLE13=I'm Losing You
TTITLE14=Beautiful Boy (Darling Boy)
TTITLE15=Watching The Wheels
TTITLE16=Dear Yoko
TTITLE17=Move Over Ms. L
TTITLE18=Cold Turkey
EXTD=John Lennon\nThe John Lennon Collection\nCD 1 of 1\n YEAR: 1989
EXTT0=
EXTT1=
EXTT2=
EXTT3=
EXTT4=
EXTT5=
EXTT6=
EXTT7=
EXTT8=
EXTT9=
EXTT10=
EXTT11=
EXTT12=
EXTT13=
EXTT14=
EXTT15=
EXTT16=
EXTT17=
EXTT18=
PLAYORDER=
